<svg xmlns="http://www.w3.org/2000/svg" width="128" height="128" viewBox="0 0 128 128" role="img" aria-labelledby="title desc">
  <title id="title">Codex contributor avatar</title>
  <desc id="desc">A terminal-inspired CX monogram surrounded by a circuit ring.</desc>
  <defs>
    <linearGradient id="g" x1="0" y1="0" x2="1" y2="1">
      <stop offset="0" stop-color="#7c3aed"/>
      <stop offset="1" stop-color="#0891b2"/>
    </linearGradient>
  </defs>
  <circle cx="64" cy="64" r="61" fill="#0b1020" stroke="url(#g)" stroke-width="6"/>
  <path d="M64 3v14M64 111v14M3 64h14M111 64h14M21 21l10 10M97 97l10 10M107 21 97 31M31 97l-10 10" stroke="#22d3ee" stroke-width="4" stroke-linecap="round"/>
  <rect x="25" y="31" width="78" height="66" rx="10" fill="#111827" stroke="#a78bfa" stroke-width="3"/>
  <circle cx="37" cy="43" r="3" fill="#f87171"/>
  <circle cx="47" cy="43" r="3" fill="#fbbf24"/>
  <circle cx="57" cy="43" r="3" fill="#34d399"/>
  <path d="m40 61-9 8 9 8M88 61l9 8-9 8" fill="none" stroke="#22d3ee" stroke-width="5" stroke-linecap="round" stroke-linejoin="round"/>
  <text x="64" y="78" text-anchor="middle" font-family="ui-monospace, SFMono-Regular, Menlo, monospace" font-size="27" font-weight="700" fill="#f8fafc">CX</text>
</svg>
